<svg width="104" height="61" viewBox="0 0 104 61" fill="none" xmlns="http://www.w3.org/2000/svg">
<g opacity="0.88" filter="url(#filter0_d_96_50)">
<path d="M15.197 40.4588C15.197 40.4588 15.197 40.2882 15.197 39.9471V38.7647V37.5824V37.0706H15.7087H16.8911H18.0734H18.5852C18.5852 37.0706 18.5852 37.2412 18.5852 37.5824V38.7647V39.9471V40.4588C18.5852 40.4588 18.4146 40.4588 18.0734 40.4588H16.8911H15.7087H15.197ZM12.3734 37.6353C12.3734 37.6353 12.3734 37.4647 12.3734 37.1235V35.9412V34.7588V34.2471H12.8852H14.0676H15.2499H15.7617C15.7617 34.2471 15.7617 34.4176 15.7617 34.7588V35.9412V37.1235V37.6353C15.7617 37.6353 15.5911 37.6353 15.2499 37.6353H14.0676H12.8852H12.3734ZM9.54991 34.8118C9.54991 34.8118 9.54991 34.6412 9.54991 34.3V33.1176V31.9353V31.4235H10.0617H11.244H12.4264H12.9381C12.9381 31.4235 12.9381 31.5941 12.9381 31.9353V33.1176V34.3V34.8118C12.9381 34.8118 12.7676 34.8118 12.4264 34.8118H11.244H10.0617H9.54991ZM6.72638 31.9882C6.72638 31.9882 6.72638 31.8176 6.72638 31.4765V30.2941V29.1118V28.6H7.23814H8.4205H9.60285H10.1146C10.1146 28.6 10.1146 28.7706 10.1146 29.1118V30.2941V31.4765V31.9882C10.1146 31.9882 9.94403 31.9882 9.60285 31.9882H8.4205H7.23814H6.72638ZM9.54991 29.1647C9.54991 29.1647 9.54991 28.9941 9.54991 28.6529V27.4706V26.2882V25.7765H10.0617H11.244H12.4264H12.9381C12.9381 25.7765 12.9381 25.9471 12.9381 26.2882V27.4706V28.6529V29.1647C12.9381 29.1647 12.7676 29.1647 12.4264 29.1647H11.244H10.0617H9.54991ZM12.3734 26.3412C12.3734 26.3412 12.3734 26.1706 12.3734 25.8294V24.6471V23.4647V22.9529H12.8852H14.0676H15.2499H15.7617C15.7617 22.9529 15.7617 23.1235 15.7617 23.4647V24.6471V25.8294V26.3412C15.7617 26.3412 15.5911 26.3412 15.2499 26.3412H14.0676H12.8852H12.3734ZM15.197 23.5176C15.197 23.5176 15.197 23.3471 15.197 23.0059V21.8235V20.6412V20.1294H15.7087H16.8911H18.0734H18.5852C18.5852 20.1294 18.5852 20.3 18.5852 20.6412V21.8235V23.0059V23.5176C18.5852 23.5176 18.4146 23.5176 18.0734 23.5176H16.8911H15.7087H15.197ZM25.0959 43.2824C25.0959 43.2824 25.0959 43.1118 25.0959 42.7706V41.5882V40.4059V39.8941H25.6076H26.79H27.9723H28.4841C28.4841 39.8941 28.4841 40.0647 28.4841 40.4059V41.5882V42.7706V43.2824C28.4841 43.2824 28.3135 43.2824 27.9723 43.2824H26.79H25.6076H25.0959ZM37.8017 43.2824C37.8017 43.2824 37.8017 43.1118 37.8017 42.7706V41.5882V40.4059V39.8941H38.3135H39.4959H40.6782H41.19C41.19 39.8941 41.19 40.0647 41.19 40.4059V41.5882V42.7706V43.2824C41.19 43.2824 41.0194 43.2824 40.6782 43.2824H39.4959H38.3135H37.8017ZM25.0959 40.4588C25.0959 40.4588 25.0959 40.2882 25.0959 39.9471V38.7647V37.5824V37.0706H25.6076H26.79H27.9723H28.4841C28.4841 37.0706 28.4841 37.2412 28.4841 37.5824V38.7647V39.9471V40.4588C28.4841 40.4588 28.3135 40.4588 27.9723 40.4588H26.79H25.6076H25.0959ZM36.39 40.4588C36.39 40.4588 36.39 40.2882 36.39 39.9471V38.7647V37.5824V37.0706H36.9017H38.0841H39.2665H39.7782C39.7782 37.0706 39.7782 37.2412 39.7782 37.5824V38.7647V39.9471V40.4588C39.7782 40.4588 39.6076 40.4588 39.2665 40.4588H38.0841H36.9017H36.39ZM25.0959 37.6353C25.0959 37.6353 25.0959 37.4647 25.0959 37.1235V35.9412V34.7588V34.2471H25.6076H26.79H27.9723H28.4841C28.4841 34.2471 28.4841 34.4176 28.4841 34.7588V35.9412V37.1235V37.6353C28.4841 37.6353 28.3135 37.6353 27.9723 37.6353H26.79H25.6076H25.0959ZM34.9782 37.6353C34.9782 37.6353 34.9782 37.4647 34.9782 37.1235V35.9412V34.7588V34.2471H35.49H36.6723H37.8547H38.3665C38.3665 34.2471 38.3665 34.4176 38.3665 34.7588V35.9412V37.1235V37.6353C38.3665 37.6353 38.1959 37.6353 37.8547 37.6353H36.6723H35.49H34.9782ZM25.0959 34.8118C25.0959 34.8118 25.0959 34.6412 25.0959 34.3V33.1176V31.9353V31.4235H25.6076H26.79H27.9723H28.4841C28.4841 31.4235 28.4841 31.5941 28.4841 31.9353V33.1176V34.3V34.8118C28.4841 34.8118 28.3135 34.8118 27.9723 34.8118H26.79H25.6076H25.0959ZM33.5665 34.8118C33.5665 34.8118 33.5665 34.6412 33.5665 34.3V33.1176V31.9353V31.4235H34.0782H35.2606H36.4429H36.9547C36.9547 31.4235 36.9547 31.5941 36.9547 31.9353V33.1176V34.3V34.8118C36.9547 34.8118 36.7841 34.8118 36.4429 34.8118H35.2606H34.0782H33.5665ZM25.0959 31.9882C25.0959 31.9882 25.0959 31.8176 25.0959 31.4765V30.2941V29.1118V28.6H25.6076H26.79H27.9723H28.4841C28.4841 28.6 28.4841 28.7706 28.4841 29.1118V30.2941V31.4765V31.9882C28.4841 31.9882 28.3135 31.9882 27.9723 31.9882H26.79H25.6076H25.0959ZM32.1547 31.9882C32.1547 31.9882 32.1547 31.8176 32.1547 31.4765V30.2941V29.1118V28.6H32.6665H33.8488H35.0312H35.5429C35.5429 28.6 35.5429 28.7706 35.5429 29.1118V30.2941V31.4765V31.9882C35.5429 31.9882 35.3723 31.9882 35.0312 31.9882H33.8488H32.6665H32.1547ZM25.0959 29.1647C25.0959 29.1647 25.0959 28.9941 25.0959 28.6529V27.4706V26.2882V25.7765H25.6076H26.79H27.9723H28.4841C28.4841 25.7765 28.4841 25.9471 28.4841 26.2882V27.4706V28.6529V29.1647C28.4841 29.1647 28.3135 29.1647 27.9723 29.1647H26.79H25.6076H25.0959ZM27.9194 29.1647C27.9194 29.1647 27.9194 28.9941 27.9194 28.6529V27.4706V26.2882V25.7765H28.4312H29.6135H30.7959H31.3076C31.3076 25.7765 31.3076 25.9471 31.3076 26.2882V27.4706V28.6529V29.1647C31.3076 29.1647 31.137 29.1647 30.7959 29.1647H29.6135H28.4312H27.9194ZM30.7429 29.1647C30.7429 29.1647 30.7429 28.9941 30.7429 28.6529V27.4706V26.2882V25.7765H31.2547H32.437H33.6194H34.1312C34.1312 25.7765 34.1312 25.9471 34.1312 26.2882V27.4706V28.6529V29.1647C34.1312 29.1647 33.9606 29.1647 33.6194 29.1647H32.437H31.2547H30.7429ZM25.0959 26.3412C25.0959 26.3412 25.0959 26.1706 25.0959 25.8294V24.6471V23.4647V22.9529H25.6076H26.79H27.9723H28.4841C28.4841 22.9529 28.4841 23.1235 28.4841 23.4647V24.6471V25.8294V26.3412C28.4841 26.3412 28.3135 26.3412 27.9723 26.3412H26.79H25.6076H25.0959ZM32.1547 26.3412C32.1547 26.3412 32.1547 26.1706 32.1547 25.8294V24.6471V23.4647V22.9529H32.6665H33.8488H35.0312H35.5429C35.5429 22.9529 35.5429 23.1235 35.5429 23.4647V24.6471V25.8294V26.3412C35.5429 26.3412 35.3723 26.3412 35.0312 26.3412H33.8488H32.6665H32.1547ZM25.0959 23.5176C25.0959 23.5176 25.0959 23.3471 25.0959 23.0059V21.8235V20.6412V20.1294H25.6076H26.79H27.9723H28.4841C28.4841 20.1294 28.4841 20.3 28.4841 20.6412V21.8235V23.0059V23.5176C28.4841 23.5176 28.3135 23.5176 27.9723 23.5176H26.79H25.6076H25.0959ZM33.5665 23.5176C33.5665 23.5176 33.5665 23.3471 33.5665 23.0059V21.8235V20.6412V20.1294H34.0782H35.2606H36.4429H36.9547C36.9547 20.1294 36.9547 20.3 36.9547 20.6412V21.8235V23.0059V23.5176C36.9547 23.5176 36.7841 23.5176 36.4429 23.5176H35.2606H34.0782H33.5665ZM25.0959 20.6941C25.0959 20.6941 25.0959 20.5235 25.0959 20.1824V19V17.8176V17.3059H25.6076H26.79H27.9723H28.4841C28.4841 17.3059 28.4841 17.4765 28.4841 17.8176V19V20.1824V20.6941C28.4841 20.6941 28.3135 20.6941 27.9723 20.6941H26.79H25.6076H25.0959ZM34.9782 20.6941C34.9782 20.6941 34.9782 20.5235 34.9782 20.1824V19V17.8176V17.3059H35.49H36.6723H37.8547H38.3665C38.3665 17.3059 38.3665 17.4765 38.3665 17.8176V19V20.1824V20.6941C38.3665 20.6941 38.1959 20.6941 37.8547 20.6941H36.6723H35.49H34.9782ZM25.0959 17.8706C25.0959 17.8706 25.0959 17.7 25.0959 17.3588V16.1765V14.9941V14.4824H25.6076H26.79H27.9723H28.4841C28.4841 14.4824 28.4841 14.6529 28.4841 14.9941V16.1765V17.3588V17.8706C28.4841 17.8706 28.3135 17.8706 27.9723 17.8706H26.79H25.6076H25.0959ZM36.39 17.8706C36.39 17.8706 36.39 17.7 36.39 17.3588V16.1765V14.9941V14.4824H36.9017H38.0841H39.2665H39.7782C39.7782 14.4824 39.7782 14.6529 39.7782 14.9941V16.1765V17.3588V17.8706C39.7782 17.8706 39.6076 17.8706 39.2665 17.8706H38.0841H36.9017H36.39ZM25.0959 15.0471C25.0959 15.0471 25.0959 14.8765 25.0959 14.5353V13.3529V12.1706V11.6588H25.6076H26.79H27.9723H28.4841C28.4841 11.6588 28.4841 11.8294 28.4841 12.1706V13.3529V14.5353V15.0471C28.4841 15.0471 28.3135 15.0471 27.9723 15.0471H26.79H25.6076H25.0959ZM37.8017 15.0471C37.8017 15.0471 37.8017 14.8765 37.8017 14.5353V13.3529V12.1706V11.6588H38.3135H39.4959H40.6782H41.19C41.19 11.6588 41.19 11.8294 41.19 12.1706V13.3529V14.5353V15.0471C41.19 15.0471 41.0194 15.0471 40.6782 15.0471H39.4959H38.3135H37.8017ZM44.8771 43.2824C44.8771 43.2824 44.8771 43.1118 44.8771 42.7706V41.5882V40.4059V39.8941H45.3889H46.5712H47.7536H48.2653C48.2653 39.8941 48.2653 40.0647 48.2653 40.4059V41.5882V42.7706V43.2824C48.2653 43.2824 48.0948 43.2824 47.7536 43.2824H46.5712H45.3889H44.8771ZM58.9948 43.2824C58.9948 43.2824 58.9948 43.1118 58.9948 42.7706V41.5882V40.4059V39.8941H59.5065H60.6889H61.8712H62.383C62.383 39.8941 62.383 40.0647 62.383 40.4059V41.5882V42.7706V43.2824C62.383 43.2824 62.2124 43.2824 61.8712 43.2824H60.6889H59.5065H58.9948ZM44.8771 40.4588C44.8771 40.4588 44.8771 40.2882 44.8771 39.9471V38.7647V37.5824V37.0706H45.3889H46.5712H47.7536H48.2653C48.2653 37.0706 48.2653 37.2412 48.2653 37.5824V38.7647V39.9471V40.4588C48.2653 40.4588 48.0948 40.4588 47.7536 40.4588H46.5712H45.3889H44.8771ZM58.9948 40.4588C58.9948 40.4588 58.9948 40.2882 58.9948 39.9471V38.7647V37.5824V37.0706H59.5065H60.6889H61.8712H62.383C62.383 37.0706 62.383 37.2412 62.383 37.5824V38.7647V39.9471V40.4588C62.383 40.4588 62.2124 40.4588 61.8712 40.4588H60.6889H59.5065H58.9948ZM44.8771 37.6353C44.8771 37.6353 44.8771 37.4647 44.8771 37.1235V35.9412V34.7588V34.2471H45.3889H46.5712H47.7536H48.2653C48.2653 34.2471 48.2653 34.4176 48.2653 34.7588V35.9412V37.1235V37.6353C48.2653 37.6353 48.0948 37.6353 47.7536 37.6353H46.5712H45.3889H44.8771ZM56.1712 37.6353C56.1712 37.6353 56.1712 37.4647 56.1712 37.1235V35.9412V34.7588V34.2471H56.683H57.8653H59.0477H59.5595C59.5595 34.2471 59.5595 34.4176 59.5595 34.7588V35.9412V37.1235V37.6353C59.5595 37.6353 59.3889 37.6353 59.0477 37.6353H57.8653H56.683H56.1712ZM58.9948 37.6353C58.9948 37.6353 58.9948 37.4647 58.9948 37.1235V35.9412V34.7588V34.2471H59.5065H60.6889H61.8712H62.383C62.383 34.2471 62.383 34.4176 62.383 34.7588V35.9412V37.1235V37.6353C62.383 37.6353 62.2124 37.6353 61.8712 37.6353H60.6889H59.5065H58.9948ZM44.8771 34.8118C44.8771 34.8118 44.8771 34.6412 44.8771 34.3V33.1176V31.9353V31.4235H45.3889H46.5712H47.7536H48.2653C48.2653 31.4235 48.2653 31.5941 48.2653 31.9353V33.1176V34.3V34.8118C48.2653 34.8118 48.0948 34.8118 47.7536 34.8118H46.5712H45.3889H44.8771ZM54.7595 34.8118C54.7595 34.8118 54.7595 34.6412 54.7595 34.3V33.1176V31.9353V31.4235H55.2712H56.4536H57.6359H58.1477C58.1477 31.4235 58.1477 31.5941 58.1477 31.9353V33.1176V34.3V34.8118C58.1477 34.8118 57.9771 34.8118 57.6359 34.8118H56.4536H55.2712H54.7595ZM58.9948 34.8118C58.9948 34.8118 58.9948 34.6412 58.9948 34.3V33.1176V31.9353V31.4235H59.5065H60.6889H61.8712H62.383C62.383 31.4235 62.383 31.5941 62.383 31.9353V33.1176V34.3V34.8118C62.383 34.8118 62.2124 34.8118 61.8712 34.8118H60.6889H59.5065H58.9948ZM44.8771 31.9882C44.8771 31.9882 44.8771 31.8176 44.8771 31.4765V30.2941V29.1118V28.6H45.3889H46.5712H47.7536H48.2653C48.2653 28.6 48.2653 28.7706 48.2653 29.1118V30.2941V31.4765V31.9882C48.2653 31.9882 48.0948 31.9882 47.7536 31.9882H46.5712H45.3889H44.8771ZM53.3477 31.9882C53.3477 31.9882 53.3477 31.8176 53.3477 31.4765V30.2941V29.1118V28.6H53.8595H55.0418H56.2242H56.7359C56.7359 28.6 56.7359 28.7706 56.7359 29.1118V30.2941V31.4765V31.9882C56.7359 31.9882 56.5653 31.9882 56.2242 31.9882H55.0418H53.8595H53.3477ZM58.9948 31.9882C58.9948 31.9882 58.9948 31.8176 58.9948 31.4765V30.2941V29.1118V28.6H59.5065H60.6889H61.8712H62.383C62.383 28.6 62.383 28.7706 62.383 29.1118V30.2941V31.4765V31.9882C62.383 31.9882 62.2124 31.9882 61.8712 31.9882H60.6889H59.5065H58.9948ZM44.8771 29.1647C44.8771 29.1647 44.8771 28.9941 44.8771 28.6529V27.4706V26.2882V25.7765H45.3889H46.5712H47.7536H48.2653C48.2653 25.7765 48.2653 25.9471 48.2653 26.2882V27.4706V28.6529V29.1647C48.2653 29.1647 48.0948 29.1647 47.7536 29.1647H46.5712H45.3889H44.8771ZM51.9359 29.1647C51.9359 29.1647 51.9359 28.9941 51.9359 28.6529V27.4706V26.2882V25.7765H52.4477H53.6301H54.8124H55.3242C55.3242 25.7765 55.3242 25.9471 55.3242 26.2882V27.4706V28.6529V29.1647C55.3242 29.1647 55.1536 29.1647 54.8124 29.1647H53.6301H52.4477H51.9359ZM58.9948 29.1647C58.9948 29.1647 58.9948 28.9941 58.9948 28.6529V27.4706V26.2882V25.7765H59.5065H60.6889H61.8712H62.383C62.383 25.7765 62.383 25.9471 62.383 26.2882V27.4706V28.6529V29.1647C62.383 29.1647 62.2124 29.1647 61.8712 29.1647H60.6889H59.5065H58.9948ZM44.8771 26.3412C44.8771 26.3412 44.8771 26.1706 44.8771 25.8294V24.6471V23.4647V22.9529H45.3889H46.5712H47.7536H48.2653C48.2653 22.9529 48.2653 23.1235 48.2653 23.4647V24.6471V25.8294V26.3412C48.2653 26.3412 48.0948 26.3412 47.7536 26.3412H46.5712H45.3889H44.8771ZM50.5242 26.3412C50.5242 26.3412 50.5242 26.1706 50.5242 25.8294V24.6471V23.4647V22.9529H51.0359H52.2183H53.4006H53.9124C53.9124 22.9529 53.9124 23.1235 53.9124 23.4647V24.6471V25.8294V26.3412C53.9124 26.3412 53.7418 26.3412 53.4006 26.3412H52.2183H51.0359H50.5242ZM58.9948 26.3412C58.9948 26.3412 58.9948 26.1706 58.9948 25.8294V24.6471V23.4647V22.9529H59.5065H60.6889H61.8712H62.383C62.383 22.9529 62.383 23.1235 62.383 23.4647V24.6471V25.8294V26.3412C62.383 26.3412 62.2124 26.3412 61.8712 26.3412H60.6889H59.5065H58.9948ZM44.8771 23.5176C44.8771 23.5176 44.8771 23.3471 44.8771 23.0059V21.8235V20.6412V20.1294H45.3889H46.5712H47.7536H48.2653C48.2653 20.1294 48.2653 20.3 48.2653 20.6412V21.8235V23.0059V23.5176C48.2653 23.5176 48.0948 23.5176 47.7536 23.5176H46.5712H45.3889H44.8771ZM49.1124 23.5176C49.1124 23.5176 49.1124 23.3471 49.1124 23.0059V21.8235V20.6412V20.1294H49.6242H50.8065H51.9889H52.5006C52.5006 20.1294 52.5006 20.3 52.5006 20.6412V21.8235V23.0059V23.5176C52.5006 23.5176 52.3301 23.5176 51.9889 23.5176H50.8065H49.6242H49.1124ZM58.9948 23.5176C58.9948 23.5176 58.9948 23.3471 58.9948 23.0059V21.8235V20.6412V20.1294H59.5065H60.6889H61.8712H62.383C62.383 20.1294 62.383 20.3 62.383 20.6412V21.8235V23.0059V23.5176C62.383 23.5176 62.2124 23.5176 61.8712 23.5176H60.6889H59.5065H58.9948ZM44.8771 20.6941C44.8771 20.6941 44.8771 20.5235 44.8771 20.1824V19V17.8176V17.3059H45.3889H46.5712H47.7536H48.2653C48.2653 17.3059 48.2653 17.4765 48.2653 17.8176V19V20.1824V20.6941C48.2653 20.6941 48.0948 20.6941 47.7536 20.6941H46.5712H45.3889H44.8771ZM47.7006 20.6941C47.7006 20.6941 47.7006 20.5235 47.7006 20.1824V19V17.8176V17.3059H48.2124H49.3948H50.5771H51.0889C51.0889 17.3059 51.0889 17.4765 51.0889 17.8176V19V20.1824V20.6941C51.0889 20.6941 50.9183 20.6941 50.5771 20.6941H49.3948H48.2124H47.7006ZM58.9948 20.6941C58.9948 20.6941 58.9948 20.5235 58.9948 20.1824V19V17.8176V17.3059H59.5065H60.6889H61.8712H62.383C62.383 17.3059 62.383 17.4765 62.383 17.8176V19V20.1824V20.6941C62.383 20.6941 62.2124 20.6941 61.8712 20.6941H60.6889H59.5065H58.9948ZM44.8771 17.8706C44.8771 17.8706 44.8771 17.7 44.8771 17.3588V16.1765V14.9941V14.4824H45.3889H46.5712H47.7536H48.2653C48.2653 14.4824 48.2653 14.6529 48.2653 14.9941V16.1765V17.3588V17.8706C48.2653 17.8706 48.0948 17.8706 47.7536 17.8706H46.5712H45.3889H44.8771ZM58.9948 17.8706C58.9948 17.8706 58.9948 17.7 58.9948 17.3588V16.1765V14.9941V14.4824H59.5065H60.6889H61.8712H62.383C62.383 14.4824 62.383 14.6529 62.383 14.9941V16.1765V17.3588V17.8706C62.383 17.8706 62.2124 17.8706 61.8712 17.8706H60.6889H59.5065H58.9948ZM44.8771 15.0471C44.8771 15.0471 44.8771 14.8765 44.8771 14.5353V13.3529V12.1706V11.6588H45.3889H46.5712H47.7536H48.2653C48.2653 11.6588 48.2653 11.8294 48.2653 12.1706V13.3529V14.5353V15.0471C48.2653 15.0471 48.0948 15.0471 47.7536 15.0471H46.5712H45.3889H44.8771ZM58.9948 15.0471C58.9948 15.0471 58.9948 14.8765 58.9948 14.5353V13.3529V12.1706V11.6588H59.5065H60.6889H61.8712H62.383C62.383 11.6588 62.383 11.8294 62.383 12.1706V13.3529V14.5353V15.0471C62.383 15.0471 62.2124 15.0471 61.8712 15.0471H60.6889H59.5065H58.9948ZM84.3983 40.4588C84.3983 40.4588 84.3983 40.2882 84.3983 39.9471V38.7647V37.5824V37.0706H84.91H86.0924H87.2747H87.7865C87.7865 37.0706 87.7865 37.2412 87.7865 37.5824V38.7647V39.9471V40.4588C87.7865 40.4588 87.6159 40.4588 87.2747 40.4588H86.0924H84.91H84.3983ZM87.2218 37.6353C87.2218 37.6353 87.2218 37.4647 87.2218 37.1235V35.9412V34.7588V34.2471H87.7335H88.9159H90.0983H90.61C90.61 34.2471 90.61 34.4176 90.61 34.7588V35.9412V37.1235V37.6353C90.61 37.6353 90.4394 37.6353 90.0983 37.6353H88.9159H87.7335H87.2218ZM90.0453 34.8118C90.0453 34.8118 90.0453 34.6412 90.0453 34.3V33.1176V31.9353V31.4235H90.5571H91.7394H92.9218H93.4335C93.4335 31.4235 93.4335 31.5941 93.4335 31.9353V33.1176V34.3V34.8118C93.4335 34.8118 93.263 34.8118 92.9218 34.8118H91.7394H90.5571H90.0453ZM92.8688 31.9882C92.8688 31.9882 92.8688 31.8176 92.8688 31.4765V30.2941V29.1118V28.6H93.3806H94.563H95.7453H96.2571C96.2571 28.6 96.2571 28.7706 96.2571 29.1118V30.2941V31.4765V31.9882C96.2571 31.9882 96.0865 31.9882 95.7453 31.9882H94.563H93.3806H92.8688ZM90.0453 29.1647C90.0453 29.1647 90.0453 28.9941 90.0453 28.6529V27.4706V26.2882V25.7765H90.5571H91.7394H92.9218H93.4335C93.4335 25.7765 93.4335 25.9471 93.4335 26.2882V27.4706V28.6529V29.1647C93.4335 29.1647 93.263 29.1647 92.9218 29.1647H91.7394H90.5571H90.0453ZM87.2218 26.3412C87.2218 26.3412 87.2218 26.1706 87.2218 25.8294V24.6471V23.4647V22.9529H87.7335H88.9159H90.0983H90.61C90.61 22.9529 90.61 23.1235 90.61 23.4647V24.6471V25.8294V26.3412C90.61 26.3412 90.4394 26.3412 90.0983 26.3412H88.9159H87.7335H87.2218ZM84.3983 23.5176C84.3983 23.5176 84.3983 23.3471 84.3983 23.0059V21.8235V20.6412V20.1294H84.91H86.0924H87.2747H87.7865C87.7865 20.1294 87.7865 20.3 87.7865 20.6412V21.8235V23.0059V23.5176C87.7865 23.5176 87.6159 23.5176 87.2747 23.5176H86.0924H84.91H84.3983Z" fill="#0029BC"/>
<path d="M61.8238 51.7529C61.8238 51.7529 61.8238 51.5824 61.8238 51.2412V50.0588V48.8765V48.3647H62.3356H63.5179H64.7003H65.212C65.212 48.3647 65.212 48.5353 65.212 48.8765V50.0588V51.2412V51.7529C65.212 51.7529 65.0415 51.7529 64.7003 51.7529H63.5179H62.3356H61.8238ZM63.2356 48.9294C63.2356 48.9294 63.2356 48.7588 63.2356 48.4176V47.2353V46.0529V45.5412H63.7473H64.9297H66.112H66.6238C66.6238 45.5412 66.6238 45.7118 66.6238 46.0529V47.2353V48.4176V48.9294C66.6238 48.9294 66.4532 48.9294 66.112 48.9294H64.9297H63.7473H63.2356ZM64.6473 46.1059C64.6473 46.1059 64.6473 45.9353 64.6473 45.5941V44.4118V43.2294V42.7176H65.1591H66.3415H67.5238H68.0356C68.0356 42.7176 68.0356 42.8882 68.0356 43.2294V44.4118V45.5941V46.1059C68.0356 46.1059 67.865 46.1059 67.5238 46.1059H66.3415H65.1591H64.6473ZM66.0591 43.2824C66.0591 43.2824 66.0591 43.1118 66.0591 42.7706V41.5882V40.4059V39.8941H66.5709H67.7532H68.9356H69.4473C69.4473 39.8941 69.4473 40.0647 69.4473 40.4059V41.5882V42.7706V43.2824C69.4473 43.2824 69.2767 43.2824 68.9356 43.2824H67.7532H66.5709H66.0591ZM67.4709 40.4588C67.4709 40.4588 67.4709 40.2882 67.4709 39.9471V38.7647V37.5824V37.0706H67.9826H69.165H70.3473H70.8591C70.8591 37.0706 70.8591 37.2412 70.8591 37.5824V38.7647V39.9471V40.4588C70.8591 40.4588 70.6885 40.4588 70.3473 40.4588H69.165H67.9826H67.4709ZM68.8826 37.6353C68.8826 37.6353 68.8826 37.4647 68.8826 37.1235V35.9412V34.7588V34.2471H69.3944H70.5767H71.7591H72.2709C72.2709 34.2471 72.2709 34.4176 72.2709 34.7588V35.9412V37.1235V37.6353C72.2709 37.6353 72.1003 37.6353 71.7591 37.6353H70.5767H69.3944H68.8826ZM70.2944 34.8118C70.2944 34.8118 70.2944 34.6412 70.2944 34.3V33.1176V31.9353V31.4235H70.8062H71.9885H73.1709H73.6826C73.6826 31.4235 73.6826 31.5941 73.6826 31.9353V33.1176V34.3V34.8118C73.6826 34.8118 73.512 34.8118 73.1709 34.8118H71.9885H70.8062H70.2944ZM71.7062 31.9882C71.7062 31.9882 71.7062 31.8176 71.7062 31.4765V30.2941V29.1118V28.6H72.2179H73.4003H74.5826H75.0944C75.0944 28.6 75.0944 28.7706 75.0944 29.1118V30.2941V31.4765V31.9882C75.0944 31.9882 74.9238 31.9882 74.5826 31.9882H73.4003H72.2179H71.7062ZM73.1179 29.1647C73.1179 29.1647 73.1179 28.9941 73.1179 28.6529V27.4706V26.2882V25.7765H73.6297H74.812H75.9944H76.5062C76.5062 25.7765 76.5062 25.9471 76.5062 26.2882V27.4706V28.6529V29.1647C76.5062 29.1647 76.3356 29.1647 75.9944 29.1647H74.812H73.6297H73.1179ZM74.5297 26.3412C74.5297 26.3412 74.5297 26.1706 74.5297 25.8294V24.6471V23.4647V22.9529H75.0415H76.2238H77.4062H77.9179C77.9179 22.9529 77.9179 23.1235 77.9179 23.4647V24.6471V25.8294V26.3412C77.9179 26.3412 77.7473 26.3412 77.4062 26.3412H76.2238H75.0415H74.5297ZM75.9415 23.5176C75.9415 23.5176 75.9415 23.3471 75.9415 23.0059V21.8235V20.6412V20.1294H76.4532H77.6356H78.8179H79.3297C79.3297 20.1294 79.3297 20.3 79.3297 20.6412V21.8235V23.0059V23.5176C79.3297 23.5176 79.1591 23.5176 78.8179 23.5176H77.6356H76.4532H75.9415ZM77.3532 20.6941C77.3532 20.6941 77.3532 20.5235 77.3532 20.1824V19V17.8176V17.3059H77.865H79.0473H80.2297H80.7415C80.7415 17.3059 80.7415 17.4765 80.7415 17.8176V19V20.1824V20.6941C80.7415 20.6941 80.5709 20.6941 80.2297 20.6941H79.0473H77.865H77.3532ZM78.765 17.8706C78.765 17.8706 78.765 17.7 78.765 17.3588V16.1765V14.9941V14.4824H79.2767H80.4591H81.6415H82.1532C82.1532 14.4824 82.1532 14.6529 82.1532 14.9941V16.1765V17.3588V17.8706C82.1532 17.8706 81.9826 17.8706 81.6415 17.8706H80.4591H79.2767H78.765ZM80.1767 15.0471C80.1767 15.0471 80.1767 14.8765 80.1767 14.5353V13.3529V12.1706V11.6588H80.6885H81.8709H83.0532H83.565C83.565 11.6588 83.565 11.8294 83.565 12.1706V13.3529V14.5353V15.0471C83.565 15.0471 83.3944 15.0471 83.0532 15.0471H81.8709H80.6885H80.1767ZM81.5885 12.2235C81.5885 12.2235 81.5885 12.0529 81.5885 11.7118V10.5294V9.34706V8.83529H82.1003H83.2826H84.465H84.9767C84.9767 8.83529 84.9767 9.00588 84.9767 9.34706V10.5294V11.7118V12.2235C84.9767 12.2235 84.8062 12.2235 84.465 12.2235H83.2826H82.1003H81.5885Z" fill="black"/>
</g>
<defs>
<filter id="filter0_d_96_50" x="3.92632" y="8.03527" width="99.1308" height="52.5177" filterUnits="userSpaceOnUse" color-interpolation-filters="sRGB">
<feFlood flood-opacity="0" result="BackgroundImageFix"/>
<feColorMatrix in="SourceAlpha" type="matrix" values="0 0 0 0 0 0 0 0 0 0 0 0 0 0 0 0 0 0 127 0" result="hardAlpha"/>
<feOffset dx="2" dy="4"/>
<feGaussianBlur stdDeviation="2.4"/>
<feColorMatrix type="matrix" values="0 0 0 0 0 0 0 0 0 0 0 0 0 0 0 0 0 0 0.25 0"/>
<feBlend mode="normal" in2="BackgroundImageFix" result="effect1_dropShadow_96_50"/>
<feBlend mode="normal" in="SourceGraphic" in2="effect1_dropShadow_96_50" result="shape"/>
</filter>
</defs>
</svg>
