<svg width="251" height="239" viewBox="0 0 251 239" fill="none" xmlns="http://www.w3.org/2000/svg">
<path d="M101.404 106.149C102.032 102.195 103.412 98.721 105.169 95.8456C108.934 89.1364 115.335 85.662 123.994 85.5422C129.642 85.5422 134.787 87.9383 138.426 91.4127C141.94 95.1268 144.325 100.278 144.325 105.43H166.915C166.664 99.7992 165.535 94.6475 163.15 89.8552C161.268 85.3026 158.381 81.2291 154.616 77.8745C136.418 61.8204 102.659 64.0967 87.2225 82.3074C71.033 102.315 70.6565 137.299 87.097 157.307C102.282 175.158 135.54 177.674 153.612 161.739C157.502 158.744 160.64 155.03 163.15 150.717C165.158 146.404 166.538 141.851 166.664 136.939H144.325C144.325 139.455 143.447 141.732 142.317 143.768C141.188 146.045 139.682 147.842 138.05 149.399C133.909 152.514 129.014 154.192 123.743 154.192C119.225 154.072 115.46 153.233 112.574 151.436C109.315 149.696 106.721 147.01 105.169 143.768C98.894 132.986 99.898 118.01 101.404 106.149ZM125.5 0C56.475 0 0 53.9131 0 119.807C6.6515 278.791 244.725 278.671 251 119.807C251 53.9131 194.525 0 125.5 0ZM125.5 215.653C70.1545 215.653 25.1 172.642 25.1 119.807C30.622 -7.30822 220.378 -7.30822 225.9 119.807C225.9 172.642 180.846 215.653 125.5 215.653Z" fill="white"/>
</svg>
