<svg width="169" height="60" viewBox="0 0 169 60" fill="none" xmlns="http://www.w3.org/2000/svg">
<g opacity="0.88">
<path d="M25.4375 35.2734C25.1562 35.6172 24.8828 36.0625 24.6172 36.6094C24.3516 37.1406 24.1016 37.7344 23.8672 38.3906C23.6328 39.0469 23.4219 39.75 23.2344 40.5C23.0469 41.2344 22.875 41.9766 22.7188 42.7266C22.5781 43.4609 22.4609 44.1875 22.3672 44.9062C22.2891 45.625 22.2422 46.2891 22.2266 46.8984C20.5078 44.1328 18.625 41.4219 16.5781 38.7656C14.5469 36.1094 12.2969 33.5391 9.82812 31.0547C11 29.7891 12.1172 28.5781 13.1797 27.4219C14.2422 26.25 15.2734 25.0625 16.2734 23.8594C17.2734 22.6562 18.2422 21.4141 19.1797 20.1328C20.1172 18.8359 21.0312 17.4375 21.9219 15.9375C22.0156 16.7344 22.1797 17.6562 22.4141 18.7031C22.6484 19.75 22.9141 20.8125 23.2109 21.8906C23.5234 22.9688 23.8594 24.0078 24.2188 25.0078C24.5938 26.0078 24.9688 26.8594 25.3438 27.5625C24.5781 27.5625 23.7734 27.6406 22.9297 27.7969C22.0859 27.9375 21.25 28.1641 20.4219 28.4766C19.6094 28.7734 18.8359 29.1562 18.1016 29.625C17.3672 30.0781 16.7266 30.6172 16.1797 31.2422C16.6484 31.8516 17.2422 32.4219 17.9609 32.9531C18.6953 33.4688 19.4766 33.9141 20.3047 34.2891C21.1484 34.6484 22.0156 34.9219 22.9062 35.1094C23.7969 35.2812 24.6406 35.3359 25.4375 35.2734ZM43.7891 14.4844C43.3984 17.125 43.1016 19.75 42.8984 22.3594C42.7109 24.9531 42.5938 27.5625 42.5469 30.1875C45.4062 27.7969 48.0234 25.1406 50.3984 22.2188C52.7891 19.2812 55 16.1016 57.0312 12.6797C58.5312 14.4141 60.25 15.9453 62.1875 17.2734C64.125 18.6016 66.2656 19.7578 68.6094 20.7422C66.2656 22.7422 63.8203 24.5859 61.2734 26.2734C58.7266 27.9453 56.1172 29.3984 53.4453 30.6328C55.1484 33.4922 57.1484 36.1797 59.4453 38.6953C61.7578 41.1953 64.2656 43.6094 66.9688 45.9375C62.0625 47 57.6484 48.6484 53.7266 50.8828C52.4922 47.6172 50.9609 44.5938 49.1328 41.8125C47.3203 39.0156 45.125 36.4688 42.5469 34.1719C42.5469 36.5 42.5938 38.8047 42.6875 41.0859C42.7812 43.3672 42.9375 45.6719 43.1562 48C41.8906 48.0781 40.6641 48.1875 39.4766 48.3281C38.2891 48.4844 37.1016 48.6797 35.9141 48.9141C34.7422 49.1641 33.5625 49.4531 32.375 49.7812C31.1875 50.1094 29.9688 50.4766 28.7188 50.8828C31.25 42.6797 32.5156 34.3594 32.5156 25.9219C32.5156 21.75 32.2109 17.5391 31.6016 13.2891C33.0703 13.7734 34.4844 14.1406 35.8438 14.3906C37.2188 14.625 38.6328 14.7422 40.0859 14.7422C40.6797 14.7422 41.2812 14.7266 41.8906 14.6953C42.5 14.6641 43.1328 14.5938 43.7891 14.4844ZM111.477 15.7031C109.227 18.5156 107.516 21.5156 106.344 24.7031C105.188 27.8906 104.609 31.3203 104.609 34.9922C104.609 36.8828 104.766 38.8281 105.078 40.8281C105.391 42.8125 105.875 44.8672 106.531 46.9922C105.234 47.0391 103.914 47.1641 102.57 47.3672C101.414 47.5391 100.141 47.8125 98.75 48.1875C97.3594 48.5625 96 49.0938 94.6719 49.7812C94.2188 48.4531 93.7188 47.1797 93.1719 45.9609C92.625 44.7266 92.0625 43.5625 91.4844 42.4688C90.9062 41.375 90.3203 40.3516 89.7266 39.3984C89.1484 38.4453 88.5938 37.5703 88.0625 36.7734C86.7969 34.9141 85.5156 33.25 84.2188 31.7812C84.2031 31.7656 84.1797 31.7344 84.1484 31.6875C84.1172 31.6562 84.0859 31.625 84.0547 31.5938C84.0234 31.5469 83.9922 31.4922 83.9609 31.4297C84.0547 32.7891 84.1016 34.1172 84.1016 35.4141C84.1016 40.1953 83.4844 44.9062 82.25 49.5469C79.5312 48.5781 76.7266 48.0938 73.8359 48.0938C72.9141 48.0938 71.9766 48.1406 71.0234 48.2344C70.0859 48.3281 69.1406 48.4766 68.1875 48.6797C70.4219 45.8984 72.1172 42.9141 73.2734 39.7266C74.4453 36.5391 75.0312 33.0703 75.0312 29.3203C75.0312 28.0703 74.9609 26.7891 74.8203 25.4766C74.6953 24.1641 74.5 22.8203 74.2344 21.4453C73.2188 20.6016 72.125 19.7422 70.9531 18.8672C69.7812 17.9922 68.5234 17.0938 67.1797 16.1719C68.6328 16.375 70.0234 16.4609 71.3516 16.4297C72.6953 16.3984 74.0234 16.25 75.3359 15.9844C76.6484 15.7031 77.9766 15.3125 79.3203 14.8125C80.6641 14.3125 82.0703 13.6953 83.5391 12.9609L96.0547 35.4609C95.8359 34.0703 95.6719 32.7031 95.5625 31.3594C95.4531 30.0156 95.3984 28.6797 95.3984 27.3516C95.3984 24.4609 95.6797 21.6719 96.2422 18.9844C96.8203 16.2969 97.7344 13.7109 98.9844 11.2266C102.719 13.8672 106.883 15.3594 111.477 15.7031ZM143.539 35.2734C144.352 35.3359 145.195 35.2812 146.07 35.1094C146.961 34.9219 147.828 34.6484 148.672 34.2891C149.516 33.9141 150.297 33.4688 151.016 32.9531C151.734 32.4219 152.336 31.8516 152.82 31.2422C152.258 30.6172 151.609 30.0781 150.875 29.625C150.141 29.1562 149.367 28.7734 148.555 28.4766C147.742 28.1641 146.906 27.9375 146.047 27.7969C145.203 27.6406 144.398 27.5625 143.633 27.5625C144.008 26.8594 144.375 26.0078 144.734 25.0078C145.109 24.0078 145.445 22.9688 145.742 21.8906C146.055 20.8125 146.328 19.75 146.562 18.7031C146.797 17.6562 146.961 16.7344 147.055 15.9375C147.945 17.4375 148.859 18.8359 149.797 20.1328C150.734 21.4141 151.695 22.6562 152.68 23.8594C153.68 25.0625 154.711 26.25 155.773 27.4219C156.852 28.5781 157.977 29.7891 159.148 31.0547C156.68 33.5391 154.422 36.1094 152.375 38.7656C150.344 41.4219 148.477 44.1328 146.773 46.8984C146.758 46.2891 146.703 45.625 146.609 44.9062C146.516 44.1875 146.398 43.4609 146.258 42.7266C146.117 41.9766 145.945 41.2344 145.742 40.5C145.555 39.75 145.344 39.0469 145.109 38.3906C144.875 37.7344 144.625 37.1406 144.359 36.6094C144.094 36.0625 143.82 35.6172 143.539 35.2734Z" fill="#0029BC"/>
<path d="M140.023 15.0703C138.117 18.9141 136.062 22.625 133.859 26.2031C131.656 29.7656 129.328 33.1016 126.875 36.2109C124.438 39.3047 121.883 42.125 119.211 44.6719C116.555 47.2188 113.812 49.3828 110.984 51.1641C113.5 47.6328 115.719 44.2031 117.641 40.875C119.578 37.5312 121.25 34.2578 122.656 31.0547C124.062 27.8359 125.219 24.6562 126.125 21.5156C127.031 18.375 127.727 15.2344 128.211 12.0938C128.883 12.6562 129.695 13.1406 130.648 13.5469C131.617 13.9531 132.633 14.2812 133.695 14.5312C134.773 14.7813 135.859 14.9531 136.953 15.0469C138.047 15.1406 139.07 15.1484 140.023 15.0703Z" fill="black"/>
</g>
</svg>
