<svg width="143" height="143" viewBox="0 0 143 143" fill="none" xmlns="http://www.w3.org/2000/svg">
<g clip-path="url(#clip0_166_43)">
<path d="M109.484 0H33.5156C15.0055 0 0 15.0055 0 33.5156V109.484C0 127.995 15.0055 143 33.5156 143H109.484C127.995 143 143 127.995 143 109.484V33.5156C143 15.0055 127.995 0 109.484 0Z" fill="white"/>
<path d="M109.484 0H33.5156C15.0055 0 0 15.0055 0 33.5156V109.484C0 127.995 15.0055 143 33.5156 143H109.484C127.995 143 143 127.995 143 109.484V33.5156C143 15.0055 127.995 0 109.484 0Z" fill="#0A66C2"/>
<path d="M103.181 121.597H119.531C120.123 121.597 120.691 121.362 121.11 120.943C121.529 120.524 121.765 119.956 121.765 119.364L121.773 84.8191C121.773 66.7637 117.883 52.8854 96.7831 52.8854C88.7622 52.5871 81.1983 56.7218 77.1167 63.6261C77.0967 63.6596 77.0663 63.6857 77.0302 63.7003C76.994 63.715 76.954 63.7174 76.9164 63.7072C76.8787 63.697 76.8454 63.6748 76.8215 63.6439C76.7977 63.613 76.7846 63.5751 76.7843 63.5361V56.7866C76.7843 56.194 76.5489 55.6257 76.1299 55.2067C75.7108 54.7877 75.1425 54.5523 74.5499 54.5523H59.0339C58.4413 54.5523 57.873 54.7877 57.4539 55.2067C57.0349 55.6257 56.7995 56.194 56.7995 56.7866V119.36C56.7995 119.953 57.0349 120.521 57.4539 120.94C57.873 121.359 58.4413 121.595 59.0339 121.595H75.3828C75.9754 121.595 76.5437 121.359 76.9627 120.94C77.3818 120.521 77.6172 119.953 77.6172 119.36V88.4293C77.6172 79.6834 79.2762 71.2134 90.119 71.2134C100.808 71.2134 100.946 81.2212 100.946 88.9957V119.363C100.946 119.956 101.182 120.524 101.601 120.943C102.02 121.362 102.588 121.597 103.181 121.597ZM21.2266 33.3078C21.2266 39.935 26.6823 45.388 33.3101 45.388C39.9361 45.3874 45.3885 39.9311 45.3885 33.305C45.3874 26.679 39.9344 21.2266 33.3078 21.2266C26.6796 21.2266 21.2266 26.6807 21.2266 33.3078ZM25.1138 121.597H41.4845C42.0771 121.597 42.6454 121.362 43.0645 120.943C43.4835 120.524 43.7189 119.956 43.7189 119.363V56.7866C43.7189 56.194 43.4835 55.6257 43.0645 55.2067C42.6454 54.7877 42.0771 54.5523 41.4845 54.5523H25.1138C24.5212 54.5523 23.9529 54.7877 23.5339 55.2067C23.1148 55.6257 22.8794 56.194 22.8794 56.7866V119.363C22.8794 119.956 23.1148 120.524 23.5339 120.943C23.9529 121.362 24.5212 121.597 25.1138 121.597Z" fill="white"/>
</g>
<defs>
<clipPath id="clip0_166_43">
<rect width="143" height="143" fill="white"/>
</clipPath>
</defs>
</svg>
