<svg width="17" height="14" viewBox="0 0 17 14" fill="none" xmlns="http://www.w3.org/2000/svg">
<path d="M16.0324 7.9347L16.0517 12.0955C16.0528 12.3407 15.9289 12.5765 15.7073 12.7508C15.4856 12.9252 15.1843 13.024 14.8697 13.0253L1.82035 13.0825C1.50572 13.0839 1.20353 12.9878 0.980249 12.8153C0.75697 12.6429 0.630895 12.4083 0.629758 12.1631L0.582603 1.99217C0.581466 1.74695 0.705361 1.51122 0.927032 1.33684C1.1487 1.16247 1.44999 1.06373 1.76462 1.06235L7.10298 1.03898M11.8482 1.01819L16.0003 1.00001M16.0003 1.00001L16.0153 4.2362M16.0003 1.00001L8.31715 7.04385" stroke="black" stroke-linecap="round" stroke-linejoin="round"/>
</svg>
